<svg viewBox="0 0 720 180" role="img" aria-label="AYYI TOUR Transport Service VIP" fill="none" xmlns="http://www.w3.org/2000/svg">
  <defs>
    <linearGradient id="gold" x1="18" y1="24" x2="142" y2="146" gradientUnits="userSpaceOnUse">
      <stop stop-color="#f5d98d"/>
      <stop offset=".42" stop-color="#c9a24a"/>
      <stop offset=".72" stop-color="#8d6b24"/>
      <stop offset="1" stop-color="#f1d58b"/>
    </linearGradient>
  </defs>
  <path d="M80 10 139 44v68l-59 38-59-38V44L80 10Z" stroke="url(#gold)" stroke-width="3"/>
  <path d="M32 78c20-7 35-18 48-36M128 78c-20-7-35-18-48-36" stroke="url(#gold)" stroke-width="5" stroke-linecap="round"/>
  <path d="M52 106 80 49l28 57M64 84h32" stroke="url(#gold)" stroke-width="7" stroke-linecap="round"/>
  <path d="M104 52 80 95 56 52" stroke="#f7f0df" stroke-opacity=".92" stroke-width="4"/>
  <path d="M56 119c15-8 33-8 48 0" stroke="url(#gold)" stroke-width="3" stroke-linecap="round"/>
  <g transform="translate(190 53)">
    <text x="0" y="45" fill="#f7f0df" font-family="Georgia,'Times New Roman',serif" font-size="48" font-weight="700" letter-spacing="7">AYYI TOUR</text>
    <path d="M2 68h292" stroke="url(#gold)" stroke-width="2"/>
    <text x="2" y="97" fill="#c9a24a" font-family="Arial,Helvetica,sans-serif" font-size="16" font-weight="700" letter-spacing="5">TRANSPORT SERVICE VIP</text>
  </g>
</svg>
