<svg width="1200" height="760" viewBox="0 0 1200 760" fill="none" xmlns="http://www.w3.org/2000/svg">
  <defs>
    <linearGradient id="gold" x1="320" y1="80" x2="880" y2="680" gradientUnits="userSpaceOnUse">
      <stop stop-color="#fff6c5"/>
      <stop offset=".2" stop-color="#f6c64a"/>
      <stop offset=".47" stop-color="#9c640c"/>
      <stop offset=".7" stop-color="#ffe58c"/>
      <stop offset="1" stop-color="#845109"/>
    </linearGradient>
    <linearGradient id="deepGold" x1="380" y1="175" x2="820" y2="520" gradientUnits="userSpaceOnUse">
      <stop stop-color="#fff9d4"/>
      <stop offset=".3" stop-color="#e2a826"/>
      <stop offset=".64" stop-color="#704307"/>
      <stop offset="1" stop-color="#f7ce62"/>
    </linearGradient>
    <linearGradient id="carGold" x1="410" y1="365" x2="790" y2="452" gradientUnits="userSpaceOnUse">
      <stop stop-color="#6b3f06"/>
      <stop offset=".2" stop-color="#ffe98b"/>
      <stop offset=".5" stop-color="#fff8cf"/>
      <stop offset=".82" stop-color="#c48615"/>
      <stop offset="1" stop-color="#4d2e05"/>
    </linearGradient>
    <radialGradient id="topGlow" cx="0" cy="0" r="1" gradientTransform="matrix(250 0 0 180 600 112)" gradientUnits="userSpaceOnUse">
      <stop stop-color="#fff2a8"/>
      <stop offset=".24" stop-color="#f6c64a" stop-opacity=".62"/>
      <stop offset="1" stop-color="#f6c64a" stop-opacity="0"/>
    </radialGradient>
    <radialGradient id="floorGlow" cx="0" cy="0" r="1" gradientTransform="matrix(310 0 0 98 600 704)" gradientUnits="userSpaceOnUse">
      <stop stop-color="#f6c64a" stop-opacity=".78"/>
      <stop offset=".36" stop-color="#b87511" stop-opacity=".36"/>
      <stop offset="1" stop-color="#080808" stop-opacity="0"/>
    </radialGradient>
    <filter id="shadow" x="-20%" y="-20%" width="140%" height="140%">
      <feDropShadow dx="0" dy="16" stdDeviation="16" flood-color="#000000" flood-opacity=".52"/>
      <feDropShadow dx="0" dy="0" stdDeviation="8" flood-color="#c9a24a" flood-opacity=".34"/>
    </filter>
  </defs>

  <rect width="1200" height="760" fill="none"/>
  <ellipse cx="600" cy="704" rx="360" ry="92" fill="url(#floorGlow)" opacity=".82"/>

  <g filter="url(#shadow)">
    <circle cx="600" cy="112" r="178" fill="url(#topGlow)"/>
    <path d="M600 52v152" stroke="url(#gold)" stroke-width="4" stroke-linecap="round" opacity=".88"/>
    <path d="M544 110c30 22 82 22 112 0" stroke="url(#gold)" stroke-width="7" stroke-linecap="round"/>

    <path d="M358 230 600 146l242 84-20 282-222 148-222-148-20-282Z" fill="rgba(4,4,4,.72)" stroke="url(#gold)" stroke-width="15" stroke-linejoin="round"/>
    <path d="M404 260 600 192l196 68-17 213-179 118-179-118-17-213Z" stroke="url(#deepGold)" stroke-width="7" stroke-linejoin="round"/>

    <g fill="url(#deepGold)" stroke="url(#gold)" stroke-width="5" stroke-linejoin="round">
      <path d="M356 452c-58-8-102-31-132-74 65 4 110 28 132 74Z"/>
      <path d="M368 402c-52-22-86-58-101-110 61 18 96 56 101 110Z"/>
      <path d="M390 354c-40-42-56-88-47-139 49 37 65 84 47 139Z"/>
      <path d="M844 452c58-8 102-31 132-74-65 4-110 28-132 74Z"/>
      <path d="M832 402c52-22 86-58 101-110-61 18-96 56-101 110Z"/>
      <path d="M810 354c40-42 56-88 47-139-49 37-65 84-47 139Z"/>
    </g>
    <path d="M260 488c128 65 242 72 340 18 98 54 212 47 340-18" stroke="url(#gold)" stroke-width="10" stroke-linecap="round"/>

    <g stroke="url(#gold)" stroke-linecap="round" stroke-linejoin="round">
      <path d="M488 292 522 222l45 78 33-92 37 92 43-78 32 70" stroke-width="13"/>
      <path d="M502 308c59-17 137-17 196 0" stroke-width="8"/>
      <path d="M570 220 600 184l30 36" stroke-width="9"/>
      <circle cx="522" cy="216" r="12" fill="url(#gold)" stroke-width="0"/>
      <circle cx="680" cy="216" r="12" fill="url(#gold)" stroke-width="0"/>
    </g>

    <path d="M748 246c56 2 101 13 132 35-44 4-82 17-117 38l14-28-63-17 34-28Z" fill="url(#deepGold)" stroke="url(#gold)" stroke-width="6" stroke-linejoin="round"/>
    <path d="M784 281h84" stroke="#fff1a7" stroke-width="5" stroke-linecap="round"/>

    <g>
      <path d="M440 418c15-74 68-124 160-124s145 50 160 124" fill="rgba(5,5,5,.9)" stroke="url(#gold)" stroke-width="12"/>
      <path d="M420 414c29-55 87-82 180-82s151 27 180 82l31 82c-48 37-118 55-211 55s-163-18-211-55l31-82Z" fill="url(#carGold)" stroke="url(#gold)" stroke-width="12" stroke-linejoin="round"/>
      <path d="M476 424c39 14 80 21 124 21s85-7 124-21" stroke="#3b2205" stroke-width="13" stroke-linecap="round"/>
      <path d="M508 474h184" stroke="#1a0f03" stroke-width="20" stroke-linecap="round"/>
      <path d="M525 455h150" stroke="#ffe178" stroke-width="6" stroke-linecap="round"/>
      <path d="M426 452c43-30 86-32 129-7-43 19-86 21-129 7Z" fill="#fff0a3" stroke="#3b2205" stroke-width="7"/>
      <path d="M774 452c-43-30-86-32-129-7 43 19 86 21 129 7Z" fill="#fff0a3" stroke="#3b2205" stroke-width="7"/>
      <path d="M440 506c52 20 105 30 160 30s108-10 160-30" stroke="#fff1a7" stroke-width="6" stroke-linecap="round" opacity=".74"/>
    </g>
  </g>

  <text x="600" y="640" text-anchor="middle" fill="url(#gold)" font-family="Georgia, 'Times New Roman', serif" font-size="108" font-weight="700">AYYI TOUR</text>
  <path d="M300 675h230M670 675h230" stroke="url(#gold)" stroke-width="5" stroke-linecap="round"/>
  <path d="M586 675h28" stroke="#fff0a7" stroke-width="9" stroke-linecap="round"/>
  <text x="600" y="716" text-anchor="middle" fill="#c9a24a" font-family="Arial, Helvetica, sans-serif" font-size="32" font-weight="700" letter-spacing="7">TRANSPORT SERVICE VIP</text>
</svg>
