<svg width="512" height="512" viewBox="0 0 512 512" fill="none" xmlns="http://www.w3.org/2000/svg">
  <defs>
    <linearGradient id="gold" x1="86" y1="62" x2="426" y2="458" gradientUnits="userSpaceOnUse">
      <stop stop-color="#fff6c5"/>
      <stop offset=".22" stop-color="#f6c64a"/>
      <stop offset=".52" stop-color="#9c640c"/>
      <stop offset=".76" stop-color="#ffe58c"/>
      <stop offset="1" stop-color="#845109"/>
    </linearGradient>
    <radialGradient id="glow" cx="0" cy="0" r="1" gradientTransform="matrix(170 0 0 150 256 138)" gradientUnits="userSpaceOnUse">
      <stop stop-color="#fff2a8"/>
      <stop offset=".3" stop-color="#f6c64a" stop-opacity=".55"/>
      <stop offset="1" stop-color="#f6c64a" stop-opacity="0"/>
    </radialGradient>
  </defs>
  <rect width="512" height="512" rx="96" fill="#050505"/>
  <circle cx="256" cy="138" r="170" fill="url(#glow)"/>
  <path d="M256 58v118" stroke="url(#gold)" stroke-width="5" stroke-linecap="round"/>
  <path d="M112 150 256 96l144 54-12 178-132 90-132-90-12-178Z" fill="rgba(8,8,8,.82)" stroke="url(#gold)" stroke-width="14" stroke-linejoin="round"/>
  <path d="M184 214 208 158l31 58 17-68 19 68 30-58 23 56" stroke="url(#gold)" stroke-width="13" stroke-linecap="round" stroke-linejoin="round"/>
  <path d="M194 230c39-12 85-12 124 0" stroke="url(#gold)" stroke-width="8" stroke-linecap="round"/>
  <path d="M344 190c37 2 67 10 89 24-30 4-55 13-78 26l9-18-40-12 20-20Z" fill="url(#gold)" stroke="url(#gold)" stroke-width="4" stroke-linejoin="round"/>
  <path d="M164 308c16-47 47-73 92-73s76 26 92 73" fill="#080808" stroke="url(#gold)" stroke-width="10"/>
  <path d="M150 308c24-38 59-56 106-56s82 18 106 56l20 58c-33 25-75 38-126 38s-93-13-126-38l20-58Z" fill="url(#gold)" stroke="url(#gold)" stroke-width="10" stroke-linejoin="round"/>
  <path d="M190 316c42 16 90 16 132 0" stroke="#231303" stroke-width="12" stroke-linecap="round"/>
  <path d="M210 352h92" stroke="#130b02" stroke-width="18" stroke-linecap="round"/>
  <path d="M154 340c35-22 67-22 98-2-33 13-66 14-98 2Z" fill="#fff0a3" stroke="#2a1703" stroke-width="5"/>
  <path d="M358 340c-35-22-67-22-98-2 33 13 66 14 98 2Z" fill="#fff0a3" stroke="#2a1703" stroke-width="5"/>
</svg>
